<?xml version="1.0" standalone="no"?>
<!DOCTYPE svg PUBLIC "-//W3C//DTD SVG 20010904//EN"
 "http://www.w3.org/TR/2001/REC-SVG-20010904/DTD/svg10.dtd">
<svg version="1.0" xmlns="http://www.w3.org/2000/svg"
 width="424.000000pt" height="424.000000pt" viewBox="0 0 424.000000 424.000000"
 preserveAspectRatio="xMidYMid meet">
<metadata>
Created by potrace 1.11, written by Peter Selinger 2001-2013
</metadata>
<g transform="translate(0.000000,424.000000) scale(0.100000,-0.100000)"
fill="#000000" stroke="none">
<path d="M1310 3720 c-232 -35 -397 -93 -583 -203 -266 -158 -452 -378 -592
-702 -34 -78 -85 -260 -100 -355 -4 -25 -9 -54 -11 -65 -23 -116 -23 -456 0
-615 97 -663 491 -1106 1107 -1244 156 -35 216 -41 414 -41 225 0 356 16 546
66 l76 20 28 -25 c16 -14 44 -31 64 -37 40 -12 1065 -7 1136 5 407 71 685 275
788 576 38 113 50 184 51 305 1 136 -7 196 -40 294 -30 90 -69 164 -128 240
-41 53 -124 131 -165 155 -73 43 -147 77 -208 96 l-72 22 57 29 c235 124 368
378 356 683 -5 127 -28 226 -79 332 -84 175 -229 294 -441 362 -55 18 -92 27
-204 48 -19 3 -258 9 -531 11 -491 5 -496 5 -546 -17 -49 -21 -51 -21 -109 -4
-73 22 -56 18 -204 49 -166 36 -434 42 -610 15z m420 -460 c0 -3 12 -6 28 -6
59 -2 112 -8 112 -14 0 -4 6 -7 13 -7 41 -3 67 -8 67 -14 0 -3 6 -6 13 -7 24
-2 47 -8 53 -15 4 -4 16 -7 26 -7 10 0 18 -4 18 -8 0 -4 10 -9 22 -9 13 -1 24
-7 26 -13 2 -5 7 -8 11 -6 4 3 7 -184 7 -415 l0 -419 -359 0 c-224 0 -365 -4
-377 -10 -29 -15 -48 -94 -45 -181 3 -84 23 -135 58 -148 12 -4 177 -7 367 -7
190 1 348 -2 351 -7 3 -5 3 -26 -1 -48 -4 -22 -3 -42 1 -45 5 -3 5 -13 0 -23
-5 -9 -6 -23 -1 -31 4 -7 6 -23 4 -34 -2 -12 -4 -34 -4 -51 1 -54 1 -69 -2
-143 -2 -41 0 -76 4 -79 5 -2 5 -10 1 -16 -4 -7 -8 -90 -8 -184 0 -98 -4 -173
-9 -172 -5 0 -13 -6 -18 -15 -5 -9 -13 -14 -19 -11 -5 4 -9 1 -9 -5 0 -6 -4
-9 -9 -6 -10 7 -61 -16 -61 -27 0 -5 -5 -5 -10 -2 -6 4 -17 1 -25 -5 -8 -7
-15 -9 -15 -5 0 4 -6 3 -12 -2 -7 -6 -23 -9 -35 -8 -13 1 -23 -3 -23 -8 0 -5
-7 -7 -15 -4 -8 4 -17 2 -20 -3 -3 -4 -16 -7 -30 -5 -14 1 -28 -2 -31 -7 -3
-4 -10 -6 -15 -2 -5 3 -17 0 -26 -8 -14 -11 -16 -11 -8 2 8 13 7 13 -8 1 -12
-9 -17 -10 -17 -2 0 9 -6 9 -22 0 -13 -7 -23 -13 -24 -13 0 -1 -9 6 -19 14
-11 8 -16 10 -12 3 8 -13 -39 -13 -61 0 -6 5 -12 4 -12 -2 0 -5 -9 -9 -20 -8
-11 1 -20 4 -20 7 0 3 -17 6 -37 6 -59 2 -103 8 -103 14 0 3 -14 7 -31 8 -17
1 -39 7 -49 12 -10 6 -28 10 -39 10 -12 0 -21 5 -21 10 0 6 -3 9 -7 9 -25 -4
-53 2 -48 11 3 6 -2 10 -12 10 -10 0 -27 7 -37 15 -10 8 -23 12 -27 9 -5 -3
-9 0 -9 5 0 6 -4 11 -10 11 -6 0 -19 8 -29 17 -36 33 -55 48 -58 45 -8 -6
-144 124 -137 131 3 3 -4 10 -15 17 -12 6 -19 15 -16 21 4 5 -1 12 -9 15 -9 3
-14 10 -11 14 3 4 -2 11 -11 14 -8 3 -12 10 -9 16 3 5 1 10 -4 10 -6 0 -11 9
-11 21 0 11 -4 18 -9 15 -7 -5 -30 40 -30 60 0 2 -7 12 -16 20 -8 9 -13 19
-10 24 3 5 1 11 -5 15 -5 3 -10 15 -10 26 0 11 -3 18 -7 16 -5 -3 -9 9 -10 26
-1 17 -7 34 -14 37 -6 4 -10 10 -10 14 4 26 -1 46 -8 41 -6 -3 -6 6 -1 25 5
19 5 28 -1 25 -5 -4 -10 6 -11 22 -2 33 -5 56 -8 63 -2 3 -3 19 -4 35 -1 17
-4 35 -7 40 -2 6 -4 28 -4 50 1 22 -3 43 -9 47 -7 5 -7 8 -1 8 6 0 10 42 10
105 0 58 2 105 5 105 3 0 5 17 4 38 0 20 2 42 5 47 3 6 7 21 7 35 1 14 3 25 4
25 1 0 3 9 5 19 2 11 7 31 11 45 4 14 6 30 6 34 -1 4 5 21 13 38 9 16 13 33
11 38 -3 5 1 14 9 21 8 7 13 16 10 20 -3 5 1 15 9 23 8 8 12 17 9 21 -3 3 0
12 7 21 7 8 9 15 4 15 -5 0 -1 5 9 11 9 6 15 14 12 20 -4 5 -1 9 6 9 7 0 10 3
6 6 -6 7 51 96 65 102 4 2 6 8 3 12 -3 5 4 14 15 20 11 6 18 15 15 21 -4 5 1
9 10 9 9 0 14 3 12 8 -3 4 17 27 45 52 27 25 62 56 76 70 15 14 29 26 32 26 3
0 24 13 47 27 24 15 47 27 52 27 5 0 14 7 21 15 7 9 19 14 27 11 7 -3 13 -2
13 2 0 9 66 37 113 48 4 1 8 2 10 3 2 3 55 12 75 13 6 1 12 6 12 12 0 6 5 4
10 -4 5 -8 10 -10 10 -4 0 6 15 10 36 9 19 -1 37 1 39 4 4 8 235 8 235 1z
m1195 -32 c3 -3 21 -2 40 2 19 4 37 5 40 2 3 -3 20 -6 38 -7 17 0 37 -4 43 -7
6 -4 25 -9 43 -10 17 -1 31 -5 31 -9 0 -6 40 -21 63 -23 4 -1 12 -8 17 -16 5
-8 10 -10 10 -5 0 6 7 1 15 -9 8 -11 15 -16 15 -12 0 12 57 -52 77 -85 10 -16
21 -29 26 -29 4 0 5 -4 2 -10 -3 -5 1 -22 9 -38 8 -16 12 -32 9 -36 -4 -3 0
-6 8 -6 11 0 11 -2 -1 -10 -8 -5 -10 -10 -4 -10 6 0 10 -13 9 -30 -1 -16 3
-30 8 -30 5 0 4 -6 -2 -14 -8 -10 -9 -16 -1 -21 7 -4 7 -12 0 -26 -8 -14 -7
-19 1 -19 7 0 8 -7 4 -17 -4 -10 -9 -36 -12 -57 -2 -22 -9 -48 -14 -58 -5 -10
-7 -18 -4 -18 3 0 0 -10 -7 -22 -12 -22 -14 -28 -17 -46 0 -5 -10 -18 -21 -30
-12 -12 -18 -22 -15 -22 3 0 -9 -15 -26 -32 -17 -18 -35 -32 -40 -31 -5 2 -9
-4 -9 -13 0 -8 -4 -13 -9 -10 -5 3 -12 -1 -15 -9 -3 -8 -9 -15 -13 -14 -15 2
-53 -13 -53 -22 0 -5 -3 -8 -7 -8 -5 1 -10 0 -13 -1 -5 -2 -30 -7 -70 -16 -14
-3 -134 -6 -267 -8 -240 -3 -243 -2 -244 18 -2 46 1 813 3 841 2 17 6 32 10
35 9 7 336 5 343 -2z m368 -1265 c42 -9 77 -20 77 -24 0 -5 6 -9 14 -9 8 0 21
-9 29 -20 8 -11 16 -17 19 -15 7 7 84 -85 81 -96 -2 -5 1 -9 6 -9 9 0 42 -71
48 -105 2 -11 8 -22 14 -23 6 -3 6 -9 -2 -18 -7 -9 -8 -14 -1 -14 6 0 9 -8 7
-17 -1 -10 0 -22 3 -28 3 -5 5 -37 3 -70 -4 -92 -6 -113 -13 -120 -4 -4 -4
-13 -2 -20 3 -7 0 -16 -5 -20 -6 -3 -9 -11 -6 -16 4 -5 1 -9 -5 -9 -6 0 -9 -4
-5 -9 3 -5 -2 -16 -10 -24 -8 -9 -15 -23 -15 -31 0 -9 -5 -16 -12 -16 -6 0 -9
-3 -6 -6 8 -7 -34 -50 -45 -46 -5 1 -6 -2 -3 -6 3 -5 -6 -18 -20 -28 -14 -11
-35 -27 -46 -36 -12 -10 -27 -18 -35 -18 -7 0 -16 -7 -19 -15 -4 -8 -10 -12
-15 -9 -6 3 -15 1 -22 -4 -7 -5 -28 -13 -47 -17 -19 -4 -38 -13 -42 -19 -6 -8
-8 -7 -8 2 0 9 -5 10 -17 4 -10 -5 -26 -8 -35 -7 -10 2 -18 0 -18 -5 0 -11
-33 -7 -42 5 -5 7 -8 6 -8 -1 0 -6 -13 -10 -30 -10 -16 0 -30 4 -30 10 0 8 -3
8 -8 1 -4 -6 -20 -11 -37 -11 -16 0 -33 5 -37 11 -5 7 -8 7 -8 0 0 -15 -70
-16 -70 -1 0 7 -3 8 -8 1 -4 -6 -20 -11 -37 -11 -16 0 -33 5 -37 11 -5 7 -8 7
-8 -1 0 -14 -63 -14 -72 0 -5 8 -8 8 -8 0 0 -11 -65 -13 -76 -1 -4 4 -13 2
-20 -4 -7 -6 -18 -8 -24 -4 -7 4 -10 160 -10 476 l0 470 323 -2 c245 -1 341
-5 400 -16z"/>
</g>
</svg>
